<?xml version="1.0" standalone="no"?>
<!DOCTYPE svg PUBLIC "-//W3C//DTD SVG 20010904//EN"
 "http://www.w3.org/TR/2001/REC-SVG-20010904/DTD/svg10.dtd">
<svg version="1.0" xmlns="http://www.w3.org/2000/svg"
 width="502.000000pt" height="502.000000pt" viewBox="0 0 502.000000 502.000000"
 preserveAspectRatio="xMidYMid meet">
<metadata>
Created by potrace 1.14, written by Peter Selinger 2001-2017
</metadata>
<g transform="translate(0.000000,502.000000) scale(0.100000,-0.100000)"
fill="#000000" stroke="none">
<path d="M1874 4873 c-10 -21 -18 -40 -19 -43 -9 -26 -22 -46 -41 -68 -13 -14
-24 -31 -24 -38 0 -8 -5 -14 -10 -14 -21 0 -243 -218 -235 -231 3 -4 -5 -17
-17 -28 -12 -12 -16 -21 -9 -21 7 0 10 -4 6 -10 -3 -5 -6 -25 -7 -45 -1 -20
-5 -38 -9 -41 -16 -9 -81 -7 -87 3 -12 19 -139 36 -148 21 -3 -5 -12 -4 -19 2
-9 7 -16 6 -24 -3 -6 -8 -23 -15 -38 -15 -25 -2 -60 -7 -73 -12 -3 -1 -8 -2
-13 -1 -4 1 -28 -4 -55 -10 -46 -11 -128 -13 -207 -5 -65 7 -81 -4 -64 -44 6
-15 5 -121 -2 -160 -14 -76 -17 -88 -30 -112 -7 -13 -12 -27 -11 -32 2 -4 -4
-19 -13 -32 -8 -13 -14 -24 -11 -24 2 0 -2 -22 -9 -49 -12 -45 -13 -142 -3
-184 2 -10 21 -38 42 -62 l37 -45 -43 4 c-24 2 -44 5 -45 6 -18 14 -110 -10
-138 -36 -14 -12 -25 -21 -25 -18 0 7 -51 -28 -81 -56 -15 -14 -51 -45 -79
-70 -29 -25 -59 -51 -66 -58 -8 -7 -14 -10 -14 -5 0 4 -5 0 -10 -9 -6 -9 -24
-19 -40 -23 -17 -4 -30 -11 -30 -16 0 -6 -8 -9 -18 -7 -9 2 -16 -2 -15 -8 1
-7 -12 -14 -28 -18 -28 -5 -31 -9 -24 -33 3 -16 14 -39 23 -52 27 -38 61 -101
55 -101 -3 0 0 -7 7 -15 7 -8 9 -15 6 -15 -4 0 -1 -10 5 -22 7 -13 14 -34 16
-48 2 -14 5 -32 6 -40 2 -8 9 -48 17 -87 7 -40 18 -73 23 -73 6 0 8 -3 4 -6
-17 -17 92 -149 124 -149 4 0 10 -3 14 -7 4 -4 13 -4 21 -1 8 3 14 -1 14 -11
0 -9 -4 -17 -10 -17 -19 -3 -25 -5 -57 -25 -18 -10 -33 -22 -33 -26 0 -5 -7
-8 -15 -8 -16 0 -38 -34 -28 -44 3 -3 1 -6 -5 -6 -7 0 -19 -18 -28 -40 -9 -22
-19 -40 -23 -40 -4 0 -8 -11 -9 -23 -1 -13 -10 -43 -21 -67 -10 -24 -17 -49
-14 -57 3 -7 0 -13 -7 -13 -7 0 -10 -7 -6 -15 3 -8 1 -15 -4 -15 -6 0 -10 -5
-10 -12 0 -16 -48 -116 -59 -123 -6 -3 -24 -26 -40 -50 l-30 -45 32 -17 c18
-9 53 -27 79 -40 38 -20 150 -113 135 -113 -2 0 24 -30 59 -66 35 -36 64 -69
64 -72 1 -10 69 -52 85 -52 7 0 15 -5 17 -10 4 -12 114 -16 146 -6 35 12 32
-9 -8 -53 -22 -24 -39 -46 -39 -49 1 -4 0 -9 -1 -12 -12 -31 -14 -105 -5 -165
3 -22 6 -57 7 -77 2 -20 5 -35 9 -32 4 2 10 -15 14 -39 5 -23 10 -51 12 -62 4
-19 3 -131 0 -220 l-2 -40 50 4 c80 6 129 7 140 1 6 -2 21 -6 35 -8 21 -2 73
-17 140 -40 8 -3 24 -7 35 -9 10 -2 22 -8 25 -13 4 -6 29 -12 56 -15 27 -2 51
-5 54 -5 19 -6 86 4 92 13 4 7 8 9 8 4 0 -4 18 5 40 19 40 26 82 27 63 1 -11
-14 -10 -60 2 -103 5 -16 8 -32 7 -36 -1 -5 3 -8 8 -8 6 0 10 -8 10 -18 0 -10
15 -35 34 -55 18 -20 32 -37 29 -37 -5 0 9 -17 70 -82 26 -28 47 -56 47 -60 0
-5 5 -6 10 -3 6 3 10 -1 10 -9 0 -9 5 -16 10 -16 6 0 10 -7 10 -15 0 -8 5 -15
10 -15 6 0 10 -5 10 -12 0 -6 8 -20 18 -31 9 -11 11 -17 3 -12 -9 5 -8 -1 4
-18 9 -14 18 -32 19 -39 8 -36 19 -48 39 -42 12 4 27 12 34 19 7 7 26 19 43
27 16 7 30 17 30 21 0 5 5 5 10 2 6 -3 10 -3 10 2 0 16 82 43 143 46 15 1 27
5 27 8 0 3 16 6 36 6 20 0 39 4 42 9 4 5 12 10 17 10 48 7 126 39 155 64 19
16 31 30 25 30 -5 0 -3 5 5 10 8 5 24 35 36 67 18 46 24 54 29 38 4 -11 9 -27
12 -35 3 -8 7 -23 8 -33 1 -10 14 -30 28 -43 15 -14 27 -28 27 -33 0 -10 125
-74 145 -74 8 0 15 -5 15 -10 0 -6 3 -7 7 -4 3 4 12 2 19 -3 6 -6 21 -12 32
-15 74 -14 208 -74 249 -112 32 -30 72 -57 78 -52 2 3 6 18 9 34 3 16 10 31
16 33 5 2 10 10 10 18 0 8 4 14 8 14 12 0 33 50 27 61 -4 5 -1 9 4 9 6 0 41
29 77 65 37 36 70 65 75 65 5 0 9 7 9 15 0 8 5 15 11 15 19 0 93 83 112 124
18 40 25 144 12 166 -15 24 8 30 30 7 43 -42 105 -67 170 -67 75 0 95 2 95 10
0 3 10 6 23 7 25 1 92 10 122 17 26 5 122 18 158 21 15 1 27 -1 27 -4 0 -4 13
-6 29 -3 16 2 31 0 34 -5 4 -5 20 -8 37 -5 24 3 30 8 24 21 -11 27 -13 185 -2
204 5 10 12 30 14 45 3 14 8 30 12 36 3 6 7 17 8 26 4 23 9 40 33 110 30 87
30 200 0 200 -5 0 -9 9 -9 19 0 11 -19 39 -42 62 -24 23 -35 40 -26 36 45 -16
148 -27 148 -16 0 5 9 9 21 9 28 0 77 24 117 58 17 15 44 36 58 47 14 11 42
35 62 54 83 76 163 128 211 137 7 1 18 7 24 13 6 6 19 11 30 11 17 0 17 2 -4
33 -13 17 -28 35 -34 39 -6 5 -6 8 0 8 7 0 7 3 0 8 -19 13 -63 107 -69 146 -4
22 -10 44 -14 50 -5 6 -7 22 -6 36 1 14 -2 30 -7 35 -8 10 -17 46 -24 94 -10
65 -61 142 -102 155 -13 4 -23 11 -23 16 0 5 -19 14 -41 20 -43 12 -43 26 -1
33 13 2 31 11 42 19 10 9 21 14 24 11 3 -4 6 0 6 7 0 7 3 11 6 7 7 -7 34 17
34 31 0 5 7 16 16 23 13 11 28 38 39 69 8 22 28 75 50 128 10 23 18 49 18 57
0 8 3 15 6 15 4 0 8 12 9 28 1 15 7 29 12 30 6 2 8 8 5 12 -3 5 3 18 15 30 11
11 20 26 20 34 0 8 3 16 8 18 14 6 50 53 56 74 5 16 0 23 -29 34 -19 8 -35 17
-35 22 0 4 -7 8 -16 8 -25 0 -98 55 -140 106 -22 25 -45 51 -52 58 -7 6 -18
17 -25 24 -95 100 -108 111 -158 129 -56 20 -88 21 -151 5 -44 -12 -48 -2 -12
27 15 12 23 21 18 21 -5 0 -2 6 7 13 45 35 57 213 24 337 -9 31 -18 86 -17
103 0 9 -2 15 -6 13 -9 -5 -13 135 -4 149 3 5 7 18 8 30 1 11 3 25 4 30 6 25
-2 32 -32 29 -100 -10 -119 -10 -124 -3 -3 5 -13 5 -23 -1 -10 -5 -21 -6 -25
-3 -3 4 -14 8 -24 9 -39 5 -136 36 -190 60 -18 9 -40 13 -48 10 -8 -3 -14 -1
-14 5 0 14 -139 9 -164 -5 -11 -6 -29 -19 -40 -28 -10 -10 -22 -15 -26 -13 -3
2 -14 -10 -24 -26 -22 -38 -32 -31 -17 12 6 18 11 57 11 88 0 45 -6 66 -33
110 -17 29 -36 62 -42 72 -5 11 -14 19 -20 19 -6 0 -19 14 -29 32 -11 17 -35
46 -53 65 -19 18 -32 33 -29 33 3 0 -7 12 -22 28 -25 25 -39 46 -61 90 -4 9
-16 33 -27 52 -10 19 -17 36 -16 38 1 1 2 7 2 12 0 15 -38 12 -47 -4 -10 -18
-119 -81 -158 -91 -48 -13 -59 -15 -83 -19 -12 -1 -25 -6 -29 -9 -3 -4 -19 -7
-35 -7 -15 0 -36 -4 -46 -9 -9 -5 -43 -15 -74 -22 -32 -7 -58 -16 -58 -21 0
-4 -5 -8 -10 -8 -14 0 -69 -57 -62 -64 3 -3 0 -6 -6 -6 -11 0 -26 -34 -31 -70
0 -5 -10 -10 -22 -10 -11 0 -18 4 -14 9 7 13 -30 79 -64 112 -26 27 -116 76
-148 83 -10 1 -36 11 -58 21 -22 10 -46 18 -52 16 -7 -1 -13 3 -13 9 0 6 -4 8
-10 5 -5 -3 -16 -3 -22 2 -7 4 -17 8 -23 9 -35 7 -117 55 -177 107 -31 26 -46
21 -64 -20z m-844 -3692 c0 -4 -6 -8 -13 -8 -8 0 -14 6 -14 13 0 7 6 10 14 7
7 -3 13 -8 13 -12z"/>
</g>
</svg>
